<svg xmlns="http://www.w3.org/2000/svg" width="1743" height="1743" xmlns:v="https://vecta.io/nano"><path d="M769.77 101c-3.764-2.352-21.915-19.899-24.654-9.941-1.258 4.572 7.236 10.515 9.909 13.517 10.747 12.07 17.717 19.971 22.745 35.424-24.629 6.924-51.288 14.137-77 14.957-8.626.275-17.374-1.731-26-1.942-9.54-.234-30.877-6.281-37 2.985l65 2.999 42-1.999c-7.774 9.796-15.252 23.25-27 28.836-9.456 4.496-39.145-7.765-38 8.164 7.23 0 28.244-3.578 33.577 1.603 3.127 3.038-.827 7.729-2.58 10.397-4.858 7.392-11.403 21.671-20.012 24.968-8.793 3.369-19.728 3.269-28.985 4.786-3.133.513-8.758.505-9.638 4.389-2.273 10.034 21.472 3.313 26.623 4.264 4.399.812 6.068 5.785 11.019 4.182 16.183-5.242 26.444-32.217 36.996-44.589 4.392 8.191 13.069 5.458 21 6.754 12.181 1.99 25.188 6.211 33 16.246-6.855-1.586-13.412-4.246-20-6.681l-13-4.895c-1.962-.73-3.947-1.469-6-1.906-18.151-3.864-2.674 15.237 4 19.512 9.026 5.782 20.908 4.216 31 3.136 3.26-.349 14.284-.124 15.093-4.469.929-4.987-8.432-14.056-11.304-17.697-15.015-19.039-34.405-28.971-53.789-10 4.858-8.526 15.479-26.869 26-28.515 6.864-1.074 15.588 3.428 22 5.515-2.181-10.713-12.92-7.372-19.682-12.854-3.39-2.748-2.379-9.204-3.318-13.146 29.475-3.969 54.591-10.97 84-.655 10.726 3.762 23.899 10.686 28.633 21.655 3.409 7.902 1.367 19.527 1.367 28 0 22.32-2 44.677-2 67-19.101-.991-31.021-22.452-51-24.83-30.312-3.608-64.82-5.05-95 .294-21.023 3.722-40.114 14.23-61 17.921-10.71 1.893-21.548-2.153-32-.385 3.708-3.381 8.332-5.412 11.96-9.04 4.449-4.449 16.858-20.37 5.035-23.406-6.657-1.71-16.483 4.112-22.995 5.698-17.508 4.264-41.289 5.835-56-6.252h55c4.826-.008 15.392.364 17.673-5.214 3.367-8.233-18.042-16.915-23.673-18.577-22.568-6.662-50.931 9.255-68 22.791v1c15.136 12.003 37.073 29.249 57 31v1l-44 2v1c18.372 7.904 37.559 7.188 57 8.039 15.323.671 30.636 1.961 46 1.961-1.776 9.179-10.458 15.249-15.174 23-9.558 15.713-11.471 44.438-26.841 55.486-8.558 6.152-17.849-1.713-26.985-.157-8.448 1.44-16.642 6.287-25 8.516-21.164 5.643-38.699 4.417-59-2.845v-1c22.336-.959 45.833-1.417 68-4.185 11.339-1.416 16.687-10.897 4-15.815v-1c13.54 2.514 27.867 1.572 37.826-9.04 4.53-4.826 14.583-16.041 5.155-20.932-7.881-4.087-25.081 3.543-33.981 3.933-19.258.843-34.211-4.646-51-12.961v-1c19.269.013 38.848 4.116 58 6.166 5.766.617 16.443 2.694 20.288-3.394 2.308-3.654-1.962-7.402-4.303-9.757-5.93-5.965-13.864-11.734-21.985-14.241-21.375-6.597-55.22 4.437-72 18.226v1c12.966 10.558 26.101 25.972 42 32v1c-21.002-1.658-37.189 6.114-55 16.8-6.168 3.701-14.906 7.893-17 15.2 25.473 13.558 60.093 41.718 91 28.323 6.166-2.672 11.096-6.835 14.956-12.323 2.141-3.043 3.7-8.815 7.269-10.397 9.06-4.016 25.258 4.829 31.932-4.712 4.228-6.046 4.801-15.103 7.716-21.891 6.674-15.541 14.606-30.72 21.872-46 3.855-8.108 6.735-18.84 14.27-24.362 7.161-5.247 16.686-4.509 24.985-6.306 27.356-5.925 51.281-4.335 79-4.332-3.831 5.206-9.304 8.882-13.331 14-3.938 5.004-6.354 11.297-10.854 15.816-5.602 5.625-13.428 7.527-14.815 16.184h12c-5.669 11.965-18.719 31.179-12 44h2l26-64c3.602 10.271 15.05 10.28 24 14.312 15.583 7.02 34.957 18.214 40 35.688l-43-31.087c-3.691-2.6-12.789-8.565-17.393-4.885-5.976 4.778 5.88 23.847 9.074 27.971 12.301 15.887 47.166 23.561 66.319 19.001-7.518-23.066-20.031-67.198-49-70.815-11.493-1.435-19.937 3.242-30 7.815 3.128-5.352 5.738-10.691 11.001-14.348 11.124-7.731 40.939-9.711 52.999-3.652 6.947 3.49 10.576 10.568 16.089 15.711 3.842 3.583 12.273 6.549 14.308 11.419 2.441 5.844.603 15.591.603 21.87 0 17.391-1 34.626-1 52-23.439 2.947-38.615-22.141-63-19.83-62.56 5.929-124.739 24.919-186 38.041-13.326 2.854-25.31 8.866-39 10.503-14.05 1.681-32.274.998-46-2.474-9.632-2.437-20.17-9.378-30-5.24v2c31.876 18.535 75.269 9.741 110 7-4.008 4.968-8.181 13.341-14 16.278-4.861 2.453-17.63-2.672-19 3.722-14.289-2.653-20.039 10.156-30 18.561-15.364 12.964-33.403 23.639-54 22.439v-1c9.816-3.107 19.014-10.127 28-15.14 6.605-3.684 13.314-7.113 20-10.641 5.364-2.83 20.483-9.811 18.208-17.994-.896-3.221-5.465-3.867-8.208-4.417-8.704-1.746-19.486-1.659-28 .966-16.054 4.95-26.78 19.977-35.806 33.226-2.773 4.071-14.412 18.311-11.073 23.397 3.437 5.235 24.078 3.22 29.879 3.773 23.102 2.2 57.423.57 68.32-24.17 3.617-8.21 2.68-17.249 2.68-26l18 2c-3.109 11.366-18.49 30.159-12 41h1l16-36h2c3.837 6.982 19.722 7.939 27 10.684 17.346 6.543 36.392 17.682 44 35.316-14.932-8.807-29.484-18.18-44-27.656-8.1-5.288-16.223-10.88-26-7.344 5.099 39.455 51.041 54.324 86 46-9.985-36.58-38.891-90.111-83-67 5.567-7.51 12.052-16.93 20-22.03 8.355-5.361 19.695-5.619 29-8.64 26.399-8.57 54.582-16.488 82-20.892 9.655-1.551 20.764-.708 30-3.438l1 1c-9.453 16.196-23.167 36.666-27 55-7.629-3.233-15.013-1.013-23-1-17.95.029-42.447-2.314-54-18 16.137 6.054 35.987 9.724 53 12.679 4.023.699 14.608 2.516 16.263-3.023 1.978-6.62-10.867-15.776-15.263-18.871-20.214-14.23-50.339-4.259-71 4.215 2.552 6.586 8.158 10.892 12.83 15.996 15.894 17.363 58.36 52.213 77.17 18.004h1l-3 20 9 2c1.6-20.272 10.518-41.238 18-60 3.216-8.065 6.523-17.844 13.043-23.866 7.431-6.863 18.705-5.512 27.957-4.42 20.464 2.416 35.244 6.49 46.934 25.286 9.825 15.795 6.377 37.163 5.155 55-1.153 16.842-.089 34.116-.089 51-22.944-3.389-37.225-23.568-61-22.985-19.703.482-43.915 1.113-63 6.141-35.073 9.24-71.119 25.733-108 24.829-31.373-.768-63.762-1.98-95-5.156-7.017-.713-13.146-4.097-20-5.365-11.836-2.19-25.557-1.092-37 2.536v1c13.136 4.273 30.514 1.595 41 11-18.13.374-38.001 8.108-53 18 12.649 17.186 41.924 37.326 64 37.871 10.149.251 19.706-5.983 25.51-13.875 2.098-2.852 6.063-7.88 3.643-11.513-4.586-6.883-17.762-.072-24.153.428-17.504 1.367-36.789 2.17-51-9.911 18.58 0 42.044 8.688 60 4.316 18.568-4.522-9.902-22.098-18-23.316v-1c23.878.002 50.245 12.273 73 3l1 1-25.7 27-16.998 28-15.302 20-2-12c-10.68.038-14.874 8.032-22 14.985-10.885 10.622-29.642 25.207-46 22.015 12.645-8.367 25.85-16.035 39-23.579 7.261-4.165 14.5-8.292 15-17.421-11.006-2.134-22.293-3.301-33 1.094-16.368 6.719-32.01 31.107-36 47.906 22.402 6.622 68.849 5.737 81-18l2 3 9-13c.39 11.256-.174 22.398-4.453 33-4.17 10.333-11.323 19.393-14.798 30-5.21 15.905-4.51 42.042.251 58 11.59-3.349 7.703-12.293 6.424-22-1.643-12.478-1.913-38.899 12.571-45.079 5.213-2.224 5.833 8.084 5.966 11.079.568 12.876-1.303 26.192.148 38.996.614 5.424 5.658 8.484 10.377 4.775 6.046-4.752 4.075-27.694 3.228-34.771-.646-5.408-1.125-11.41-4.366-15.985-2.542-3.59-6.96-5.827-8.606-10.03-2.253-5.754-.236-13.075.168-18.985.827-12.063-2.514-26.272.408-38 1.42-5.701 7.344-9.796 10.012-15 2.463-4.804 2.239-10.511 5.323-15 5.19-7.556 13.469-12.481 20.347-18.296 10.754-9.093 20.055-21.732 34-25.933 13.692-4.125 28.924-.874 43-1.86 11.122-.78 22.085-4.794 33-6.911v1c-17.097 5.031-35.013 32.215-39 49 29.444 8.724 61.793 3.036 86-14-6.092 14.344-10.456 33.05-21 45-.488-5.355-3.646-10.338-9.7-6.821-5.623 3.268-9.709 11.193-14.304 15.82-12.775 12.867-29.216 24.846-47.996 25.001v-1c13.955-6.602 26.911-17.068 40-25.319 5.394-3.4 13.006-7.21 15.238-13.676 2.27-6.575-5.848-6.949-10.238-7.001-10.809-.129-20.933.736-29.996 7.297-11.171 8.086-14.826 22.266-25.004 30.699 0-8.71-.92-18.431.3-27 2.209-15.506 7.545-31.773.823-47-3.899-8.835-11.797-13.858-21.123-15.536-3.307-.594-8.713-1.278-10.214 2.684-2.232 5.895 6.646 13.412 9.515 17.852 7.302 11.301 17.135 30.626 10.699 44l-14.425-41c-1.483-3.915-4.001-11.894-9.457-11.454-6.956.562-7.172 17.614-7.114 22.454.205 17.248 19.419 38.967 34.996 45-3.644 19.556-15.794 34.265-20.486 53-4.438 17.722-.282 37.11.486 55 3.075-.889 7.002-1.968 8.396-5.213 1.951-4.544-.815-11.122-1.346-15.787-1.249-10.968-1.86-21.528 2.404-32 1.63-4.004 6.243-14.57 11.452-14.654 4.638-.075 4.449 9.62 4.808 12.654 1.308 11.044-1.385 21.962-.625 33 .323 4.676.882 10.987 6.911 10.833 6.339-.163 6.573-6.915 6.911-11.833.747-10.906 2.93-29.308-2.92-38.996-2.39-3.958-12.618-9.832-9.256-15.516 2.438-4.123 20.736-1.392 25.265-1.503 20.98-.514 53.699-5.79 56-31.985h2c.017 6.145 4.166 14.759 2.67 20.424-2.858 10.82-15.725 16.527-21.188 25.58-7.053 11.69-5.482 26.964-5.482 39.996 15.764-4.555 10.162-29.427 16.558-41.996 2.252-4.425 9.837-9.93 12.839-2.87 1.748 4.113.603 10.47.603 14.866v14c13.367-7.605.916-38.056 2.17-51 1.118-11.547.402-24.86 3.618-36 2.67-9.251 9.408-16.738 12.17-26 5.648-18.946 7.968-33.674 22.042-49-.751 9.512-1.428 18.881 2.348 28 7.434 17.953 33.053 34.582 51.652 39 1.539-5.207.72-10.639 1.424-16 3.072-23.392.69-69.267-30.424-72v-1c15.379-3.66 21.141 10.371 30.171 19.961 3.83 4.068 9.561 6.904 12.026 12.078 5.84 12.26 6.721 30.634.891 42.961-7.607 16.086-18.869 25.689-22.171 44-2.339 12.964-13.955 44.55 7.083 45l-1-35 11 18h3c2.019-5.539 3.176-12.286 1.005-18-1.958-5.155-7.081-9.041-6.23-15 1.333-9.343 9.365-17.318 12.761-26 5.775-14.761 4.924-37.946.464-53 3.939 1.126 11.598 2.845 13.972 6.419 4.096 6.165.177 26.259-.686 33.581-3.682 31.205-5.286 64.583-5.286 96h45l-3.961-73-3.039-58 11-3c-.135 16.26-4.364 31.889.3 48 2.922 10.093 13.186 19.494 13.957 30 .4 5.459-4.867 10.175-6.778 15-2.366 5.975-.614 11.273 1.521 17h3l8-18h2c2.761 11.235.431 23.677-1 35 22.385-.2 10.381-33.098 7.6-47-5.502-27.505-39.597-52.099-21.321-82.826 4.058-6.824 13.999-12.452 19.721-18.174-9.569 24.671-7.071 47.227-7 73 20.395-3.057 49.921-24.329 54.331-45 1.141-5.349 3.382-23.895-2.61-26.864-5.47-2.711-11.355 6.247-13.667 9.864-9.435 14.759-20.58 30.2-28.054 46h-1c.053-19.105 11.918-35.917 25.001-48.999 3.129-3.129 10.015-11.851 14.995-11.232 3.432.427 6.083 4.849 8.134 7.231 5.854 6.795 11.757 14.023 15.958 22 4.978 9.453 4.986 20.947 8.133 31 2.771 8.854 9.149 16.003 11.739 25 3.459 12.015 3.097 26.535 3.951 39 .84 12.266-5.692 24.153-4.739 36 .342 4.254 3.21 8.133 4.828 12h1c0-4.753.381-9.281.83-14 .316-3.316.148-6.674.171-10 .059-8.569 7.665-12.918 12.557-3.981 6.332 11.566 3.331 26.105 8.472 37.768 1.58 3.587 5.46 4.587 8.97 5.213 0-12.936 1.11-27.254-5.41-39-5.41-9.726-18.409-15.469-21.331-26.714-1.021-3.931 1.169-8.395 1.741-12.286h1c10.768 31.932 57.09 19.306 81 25-2.21 7.536-8.15 10.42-11.7 17-4.91 9.122-4.03 24.065-2.72 34 .64 4.883 1.11 21.698 10.99 14.972 3.43-2.341 2.43-8.422 2.43-11.972 0-10.636-.43-21.374.04-32 .14-3.075.73-13.246 6-11.079 15.04 6.187 14.22 32.477 12.54 45.079-1.34 10.024-4.42 17.451 6.42 22 5.3-17.899 5.81-44.638-1.21-62-5.18-12.814-19.07-28.133-17.18-42.96.69-5.46 10.62-11.05 14.56-14.554 10.11-8.992 20.24-21.217 19.79-35.486-.16-4.763-2.07-25.644-10.78-19.392-14.5 10.416-9.14 39.384-22.18 51.392 0-14.875 2.84-26.914 10.29-40 3.03-5.336 13.19-14.638 11.8-20.941-1.14-5.155-7.18-4.174-11.09-3.44-9.91 1.856-17.47 7.964-21.17 17.381-5.59 14.221-.53 27.744 1 42 1.08 10.135.17 20.808.17 31h-1c-6.72-18.352-23.28-38.02-44-38.961-4.37-.198-17.28-1.941-19.35 3.264-2.4 6.035 6.41 11.674 10.35 14.353 14.18 9.651 29.52 21.023 45 28.344v1c-17.28-.048-32.95-10.26-45-22.015-8.77-8.554-14.474-21.495-28-18.985l-15-32 25 9.385 55-.385c-.91-17.803-23.06-46.109-40-51v-1c13.12 1.694 25.79 6.985 39 7.911 16 1.12 32.86-2.713 48 3.966 11.55 5.096 19.35 16.356 29 24.122 7 5.634 16.24 10.961 20.72 19.001 2.26 4.061 1.94 8.863 3.96 13 2.2 4.476 6.44 7.881 7.18 13 1.88 13.127.13 27.732.14 41 0 5.655 2.09 12.547.35 17.985-1.63 5.075-6.8 7.728-9.65 12.016-3.01 4.529-3.03 10.737-3.53 15.999-.77 8.084.44 15.976.79 24 .15 3.321-.68 7.624 2.36 9.91 4.8 3.609 9.95.551 10.57-4.914 1.44-12.718-.04-26.195.11-38.996.04-3.043.55-13.409 6-11.079 14.26 6.093 14.25 32.776 12.57 45.079-1.34 9.858-5.59 18.526 6.43 22 4.74-16.039 4.93-44.243-.7-60-3.89-10.884-11.55-19.892-15.11-31-4.38-13.696-2.64-27.563-7.19-41 7.66 8.851 12.15 22.07 21.04 29.482 17.29 14.405 54.1 15.685 74.96 9.518-5.49-20.076-23.38-46.642-45-50.245-5.1-.851-19.28-2.899-22.96 1.987-3.52 4.678 4.83 11.029 7.96 13.165 12.93 8.831 30.15 21.362 45 26.093v1c-26.65 3.802-40.55-22.841-59.09-35.397-5.69-3.851-9.72-.47-9.91 5.397-14.85-11.355-19.13-31.301-31.18-45-7.41-8.413-20.1-15.046-23.82-26 23.25 7.851 46.13-2.508 70-3v1c-7.89.808-36.24 18.286-19 23.072 17.96 4.986 42.31-4.072 61-4.072v1c-13.41 6.632-26.61 11.294-42 9.83-7.34-.698-25.9-7.423-31.85-3.084-5.04 3.68-.57 9.539 2.06 13.253 5.83 8.234 15.46 14.14 25.79 13.872 18.33-.475 35.48-13.215 49-24.295 2.96-2.428 13.97-8.981 12.65-13.51-1.15-3.962-8.28-6.196-11.65-7.639-11.64-4.977-23.42-8.829-36-10.427v-1l42-10v-1c-11.94-3.355-25.72-4.854-38-2.532-6.85 1.294-12.93 4.643-20 5.361-31.14 3.163-63.73 4.795-95 5.167-37.47.446-73.17-16.396-109-25.098-11.969-2.907-23.873-2.157-36-2.987-11.069-.759-21.866-3.044-33-2.907-19.082.234-33.709 20.106-53 22.996 0-22.643-1-45.298-1-68 0-16.708-1.245-30.131 9.669-44 11.918-15.144 25.65-17.103 43.331-19.424 8.476-1.113 19.897-2.076 26.907 3.818 5.804 4.881 9.285 13.771 12.22 20.606 7.829 18.225 19.872 43.887 18.873 64 11.02-.909 8.179-7.332 8-16 35.48 21.874 63.14-14.118 86-38v-1c-16.02-10.949-49.34-17.297-67-7.877-5.042 2.69-23.318 15.107-18.928 22.444 2.925 4.89 13.537 2.737 17.928 1.684 16.53-3.967 33.1-9.068 50-11.251-17.11 21.018-49.485 16.002-73 16l-26-54c12.833 3.055 26.887 2.622 40 5.095 23.45 4.422 47.29 11.311 70 18.561 9.35 2.985 20.14 3.64 29 7.887 10.1 4.845 19.66 17.877 25 27.457-6.19-3.738-11.89-7.695-19-9.522-27.38-7.041-45.06 18.375-56.22 39.522-3.93 7.455-7.02 15.318-10.47 23-1.05 2.324-3.81 6.86-2.18 9.397 3.07 4.78 21.04 1.046 25.87.692 29.09-2.133 54.68-14.015 59-46.089-9.78-3.536-17.9 2.056-26 7.344-14.52 9.477-29.23 18.582-44 27.656 7.7-18.382 27.28-28.841 45-35.796 10.56-4.143 23.88-3.153 28-15.204h1l18 41h2c4.79-11.022-7.54-30.636-13-41l15-1c-8.18 44.066 39.55 51.325 72 49.089 6.61-.455 23.23 1.456 28.35-3.113 2.3-2.049-.08-5.882-1.11-7.976-3.64-7.387-8.25-14.377-13.12-21-18.89-25.661-38.14-34.102-69.12-27 .45 8.682 5.92 12.842 13 16.988 16.44 9.624 35.92 23.289 54 29.012v1c-20.72 1.463-39.84-9.618-55-23.054-6.07-5.385-11.31-13.66-18.28-17.772-8.22-4.839-17.51-.559-25.63-3.777-5.78-2.291-10.78-11.388-14.09-16.397 24.23 3.064 46.64 4.488 71 2.17 14.3-1.362 26.02-1.78 39-9.17-6.32-7.583-17.27-.811-25 1.656-17.2 5.488-39.24 5.89-57 3.21-12.7-1.917-24.48-7.682-37-10.442-59.74-13.172-120.088-29.932-181-37.138-12.354-1.462-24.804 3.44-35 10.059-6.515 4.229-16.447 12.52-24.941 10.207-4.556-1.241-3.865-5.812-4.229-9.552-.877-9.016-.83-17.932-.83-27 0-11.253-3.7-26.04-.682-36.895 1.301-4.678 8.205-6.566 11.682-9.434 11.317-9.333 16.793-20.993 33-21.631 11.628-.457 31.449.253 40.985 7.518 12.182 9.281 18.822 33.504 24.204 47.442 3.436 8.898 4.857 27.316 13.811 32 6.027-13.638-6.995-31.096-12-44 14.091.011 14.33 18.124 26 25.895 17.34 11.548 43.37 17.217 64 18.105-.4-19.296-11.72-50.176-29-60.12-4.57-2.631-26.921-11.981-30.218-4.562-2.531 5.696 4.647 13.163 8.233 16.593L1068.77 337c-17.87-3.735-31.35-18.418-41.254-33-3.693-5.438-6.808-16.562-12.85-19.562-8.509-4.223-10.436 8.929-10.896 14.562-12.297-7.59-17-16.108-25.669-26.996-3.769-4.734-8.821-8.062-12.331-13.004 27.267-.003 51.099-1.996 78 4.112 7.66 1.738 17.26 1.107 24 5.591 8.87 5.9 12.08 17.097 16.31 26.297l21.83 46c2.87 6.506 3.23 14.917 7.23 20.786 6.3 9.267 20.26.432 28.42 5.242 8.61 5.083 10.64 17.275 21.21 22.068 31.99 14.512 65.31-15.473 92-28.096-2.14-7.482-11.61-12.028-18-15.716-17.17-9.912-33.71-18.848-54-16.284v-1l42-32c-4.79-6.106-12.92-8.752-20-11.424-16.02-6.045-34.81-13.459-52-7.827-8.38 2.745-15.86 8.008-21.98 14.255-2.33 2.374-6.62 6.104-4.31 9.768 3.85 6.088 14.52 4.011 20.29 3.394 19.15-2.05 38.73-6.153 58-6.166v1c-17.46 7.34-31.21 13.827-51 12.961-8.97-.393-27.09-8.117-34.89-3.642-8.28 4.749.84 15.279 4.98 19.666 10.36 10.969 23.66 12.66 37.91 10.015v1l-9 7v1c7.11 7.946 14.27 7.138 24 8.286 18.96 2.237 38.89 2.893 58 3.714v1c-7.83 2.254-14.7 6-23 6.829-21.75 2.175-39.73-7.304-60-12.216-9.12-2.211-17.1 6.294-25.9-1.032-12.36-10.293-15.3-34.459-21.99-48.581-4.91-10.385-14.22-17.724-19.11-28l69-3.089 34-6.911v-2l-47-2v-1c20.16-1.771 39.88-19.122 56-30-3.36-7.052-11.31-10.404-18-13.753-15.17-7.592-32.6-16.538-50-10.887-5.89 1.913-24.12 9.572-23.08 17.535.82 6.245 12.67 6.098 17.08 6.105h56v1c-25.49 10.979-46.86 8.039-73 .091-5.74-1.745-10.31.027-12 5.909-12.31-3.893-30.81-1.065-41.7-7.988-5.15-3.276-8.85-11.068-12.28-16.012-2.46-3.563-12.21-13.89-8.234-18.397 6.754-7.657 30.454 5.717 34.214-5.603 10.15 2.845 19.09-.65 29-3.127 12.77-3.192 26.7-5.259 39-9.873-10.7 14.867-33.92 18.24-51 18.961-6.3.266-21.54-4.684-24.86 3.098-1.67 3.899 2.62 8.32 5.03 10.901 7.88 8.405 18.62 11.356 29.83 9.74 18.2-2.623 33.77-18.617 45.29-31.7 4.49-5.103 9.85-9.751 12.71-16-15.67-8.256-41.6-14.265-59-9.51-13.57 3.711-17.9 16.657-29.04 22.482-4.21 2.201-10.37.866-14.96 1.067-6.07.266-13.012 2.342-19 .397-9.728-3.161-24.937-20.492-27-30.436l28 2.039 78-2.039c-6.79-9.255-32.88-3.753-43-2.424-24.05 3.157-48.744-1.134-72-7.425-6.062-1.64-17.809-2.014-22.589-6.089-3.301-2.816.411-9.844 1.607-13.062 3.69-9.925 14.627-18.629 21.982-26 2.414-2.419 8.551-6.828 6.248-10.848-2.178-3.803-6.389-2.2-9.248-.386-7.171 4.548-13.881 10.379-20 16.234.498-6.308 1.941-12.734.214-19-8.898-32.296-58.246-37.799-86.214-39l9 31h-1c-3.04-6.389-7.78-12.543-15-14 3.472 18.7 4.579 45.954-2 64h-2c-7.901-20.481-6.709-41.563-4-63-23.763 11.175-22.28 53.08-13.099 73 5.17 11.216 13.494 13.124 14.099 27-23.492-23.49-47.374-27-79-27-.755-9.233-6.49-16.83-12-24 8.462-2.505 12.98-17.279 18.286-24 11.621-14.718 24.594-25.896 42.714-31-9.52 13.477-25.524 24.794-38 35.576-4.642 4.012-13.54 11.106-12.497 18.28.603 4.148 6.385 4.05 9.497 3.704 8.74-.972 18.479-2.895 26-7.693 18.03-11.501 28.263-41.543 31-61.867-35.121.724-87 9.883-87 53m131-41c19.193 4.978 31.998 16.459 43.989 32 5.67 7.348 9.658 22.217 20.011 23-2.488 5.766-6.635 10.436-9.443 16-1.172 2.324-1.294 6.136-3.874 7.397-9.872 4.823-25.639-.834-36.683 2.696-15.249 4.875-26.64 14.491-39 23.907.209-4.873.372-12.455 3.013-16.675 5.244-8.38 14.459-12.608 18.804-22.325 5.594-12.508 1.452-28.372-1.817-41h1c12.574 21.522 27.983 34.037 54 32-.159-17.591-25.979-32.958-38-43.83-4.056-3.668-10.666-7.666-12-13.17m-6 20l-1 1 1-1m-251 53c26.153 6.197 51.218 21.885 79 13.56 11.905-3.567 19.277-12.869 22.572-24.56 1.297-4.602 3.14-11.601-2.631-13.833-7.515-2.907-19.32 8.869-25.941 12.049-16.903 8.12-35.731 13.626-54 7.784 16.467-7.087 35.607-10.056 53-14.235 5.249-1.262 15.827-4.061 16.534-10.664.377-3.523-3.987-5.112-6.535-6.319-7.185-3.403-15.985-5.885-23.999-5.728-17.751.349-33.879 14.392-46 25.985-4.8 4.591-10.285 9.365-12 15.961m364-32c3.96 10.064 14.391 12.132 24 14.21 15.35 3.319 32.57 6.582 47 12.79-18.08 5.782-37.33.569-54-7.759-7.304-3.65-19.494-15.891-27.848-11.436-4.511 2.405-2.054 9.296-.993 13.195 3.206 11.78 11.031 21.083 22.841 24.779 27.17 8.506 53.41-7.715 79-13.779-2.87-8.983-11.1-15.056-18-21-21.9-18.862-45.758-28.292-72-11m-16 68c-9.147 1.346-17.144 3.897-22 12 6.681-2.573 16.725-7.321 24-5.413 8.546 2.242 15.115 13.699 19.989 20.413 12.42 17.108 25.351 46.483 46.011 54 5.02-10.425 23.45-4.197 33-4v-7l9.04 11.961L1117.77 263v1c-10.68.001-21.36 2.235-32 .195-20.13-3.858-38.65-14.102-59-17.731-22.287-3.974-47.4-3.414-70-2.425-12.942.567-28.355 1.054-40 7.285s-21.039 19.036-35 19.676c-2.428-13.077-4.789-34.182-1-47 19.413 5.022 50.127 4.491 65.961-9.326 8.001-6.982 12.239-17.074 16.039-26.674-10.34-3.767-18.058 1.535-27 6.576-12.932 7.29-26.285 14.714-40 20.424 7.109-16.472 26.631-25.166 43-29.859 6.678-1.914 22.902-1.488 25.673-9.16 1.648-4.562-4.485-8.117-7.673-10.054-9.664-5.873-19.578-7.328-30-2.614-23.349 10.562-33.897 37.97-46 58.687-2.497-5.951-1-14.58-1-21 0-7.993-2.13-19.672 1.453-27 10.759-22.008 47.227-26.102 68.547-25.999 10.222.049 21.027 1.822 31 4.013 3.011.662 8.942 1.161 10.972 3.724 2.47 3.12.419 9.67.028 13.262m-147 45c-15.601-4.503-30.649-15.665-45-23.219-4.59-2.416-13.478-7.436-18.642-3.753-2.918 2.081-.946 6.382.095 8.972 3.026 7.53 8.162 15.263 14.562 20.319 14.885 11.761 47.393 13.636 64.985 7.681-6.211-21.561-24.846-52.035-46-61.121-10.664-4.58-21.172-2.733-31 2.998-3.489 2.034-8.898 5.284-7.485 10.079 2.283 7.744 17.146 6.746 23.485 8.704 16.79 5.185 36.522 12.731 45 29.34m-254-42c2.496 5.895 7.274 10.22 11.424 15 11.444 13.179 28.157 30.581 46.576 32.816 11.482 1.393 21.569-1.548 29.711-9.987 2.51-2.602 6.693-6.796 5.001-10.77-3.312-7.782-18.397-2.832-24.712-3.098-17.174-.725-40.245-4.01-51-18.961 16.147 6.058 35.105 9.68 52 13.338 4.284.927 14.545 3.24 16.698-2.566 2.408-6.496-11.351-16.739-15.698-19.848-18.394-13.154-51.428-5.815-70 4.076m357 61c20.473 5.767 56.834 9.627 62-19-16.152-3.846-33.499 9.327-49 13 7.51-10.434 21.826-14.508 34-16.41 4.712-.736 15.321 1.314 17.914-3.818 1.85-3.663-2.337-7.1-4.919-8.983-6.303-4.599-14.414-6.179-21.995-4-15.517 4.46-31.941 24.807-38 39.211m-102-19l-1 1 1-1m48 132c8.06 1.919 15.942.117 24-1 28.184-3.907 49.08-15.646 53-46-10.506-2.494-18.013 3.93-26 10-11.805 8.971-24.043 18.779-37 26 9.548-16.343 21.967-26.501 39-34.741 6.222-3.01 22.489-5.106 24.677-12.299 1.697-5.574-4.691-7.803-8.677-9.698-9.542-4.538-21.831-4.844-31 .868-21.04 13.106-31.776 44.069-38 66.87m-235 3c22.083-.951 55.137-7.288 70.826-24.04 7.742-8.267 10.052-20.017 7.425-30.96-.834-3.475-1.926-9.937-6.356-10.377-8.684-.864-13.053 14.703-16.924 20.377-9.862 14.457-23.713 30.303-41.971 33l36.911-35.83c3.826-3.724 11.43-10.632 8.482-16.852-3.483-7.348-24.745 1.896-29.393 4.478-17.666 9.818-28.599 40.798-29 60.204m-298 789c-2.968-20.09-14.466-40.41-20.279-60-7.129-24.02-9.344-52.34-22.648-74-9.956-16.2-31.126-21.719-38.619-40-4.894-11.939-3.896-25.361-5.726-38.001-3.332-23.011-7.938-45.752-14.753-67.999-18.167-59.308-49.68-115.081-58.547-177-9.585-66.937 10.088-142.864 31.057-206 17.857-53.769 41.971-103.189 76.939-148 6.762-8.664 16.001-17.666 20.097-28 1.623-4.095 2.441-11.653-3.565-12.574-5.768-.885-11.165 5.964-14.956 9.289-11.551 10.132-22.161 21.395-32.999 32.285-47.264 47.492-84.778 107.945-109.601 170-19.342 48.353-32.585 98.64-40.838 150-5.621 34.983-11.08 70.438-9.522 106 4.489 102.519 41.871 201.925 108.69 280 26.531 31 55.751 60.9 90.271 83.05 13.375 8.58 28.928 18.78 45 20.95m1021 0c16.07-2.17 31.62-12.37 45-20.95 34.51-22.15 63.74-52.06 90.27-83.05 66.77-78.019 104.2-177.531 108.69-280 1.55-35.427-3.68-71.159-9.52-106-8.76-52.216-21.43-104.115-42.16-153-26.04-61.42-61.91-120.55-109.28-168-10.53-10.546-20.93-21.202-32-31.169-3.83-3.446-9.07-10.061-14.96-9.325-5.93.741-5.36 8.49-3.68 12.494 4.33 10.315 13.41 19.268 20.22 28 34.37 44.119 58.78 92.947 76.09 146 20.96 64.234 40.89 138.906 32.04 207-8.2 63.079-41.04 120.739-59.68 181-7.05 22.779-11.23 46.444-14.6 70-1.6 11.151-.53 22.347-4.88 33-7.51 18.347-28.73 23.754-38.62 40-13.28 21.81-15.49 49.88-22.65 74-5.82 19.61-17.31 39.87-20.28 60m-555-693c-14.141-7.88-27.014-18.744-40-28.37-6.779-5.026-14.556-10.67-23-6.63 6.085 29.404 24.488 41.147 53 45.13 7.866 1.099 16.207 3.173 24 .87-5.159-22.297-16.881-53.609-37-66.289-9.672-6.096-21.727-6.048-32-1.398-3.867 1.751-9.548 4.449-8.289 9.644 1.797 7.407 18.214 9.37 24.289 12.302 16.398 7.912 30.982 17.898 39 34.741m88 0c6.796-16.319 22.215-27.516 38-34.688 6.509-2.957 21.439-4.594 24.802-11.366 5.636-11.349-22.413-14.687-28.802-13.62-22.63 3.78-32.956 30.166-40.717 48.674-1.529 3.648-9.102 18.96-5.636 21.972 3.743 3.254 13.994.399 18.353-.244 18.151-2.674 38.053-5.784 48.385-22.728 2.722-4.464 10.692-18.068 6.583-23.258-4.77-6.024-17.148 3.755-20.968 6.686l-15 11.201c-8.161 6.035-16.588 11.696-25 17.371m164-47l-1 1 1-1m-127 77v1l-20 8c5.557-7.866 10.889-9 20-9m-206 36h-1c-.208-4.485-1.679-11.521-7.911-9.238-6.777 2.481-12.744 12.292-18.089 17.064-13.8 12.322-29.467 20.174-48 20.174v-1c15.913-8.381 33.041-17.144 48-27.105 1.774-1.181 3.443-2.512 4.981-3.988 11.58-11.116-5.472-12.732-13.981-12.907 11.027-4.951 24.506-5.435 36-10 2.593-1.03 9.672-4.878 11.303-.678 2.372 6.104-8.936 21.575-11.303 27.678m294-17v1l-28 2c2.513 9.728 10.768 13.845 19 18.309 13.4 7.264 26.21 16.246 40 22.691v1c-17.83 0-32.31-6.907-46-18.286-9.722-8.083-15.381-20.426-29-18.714-1.802-4.182-10.482-14.87-6.957-19.381 2.588-3.312 10.071 1.269 12.957 2.328 12.226 4.483 25.087 7.412 38 9.053m-226 54c-19.375-10.601-19.412-46.567-41-55 4.527-8.095 14.147 4.016 17.961 8 12.075 12.614 22.989 29.035 23.039 47m113-57l-1 1 1-1m116 4.333l.33.334c-.49.164-1.1-.334-.33-.334M791.77 625c-12.134-14.272-20.361-32.199-30.32-48-3.345-5.307-8.096-14.152-15.571-13.744-4.229.231-4.775 5.436-5.019 8.744-.656 8.899-.597 18.531 2.458 27 7.664 21.248 37.141 37.38 57.452 44 2.542-8.58 2-18.121 2-27 0-19.746.31-42.538-12.529-58.996-7.07-9.062-20.065-14.027-31.471-12.718-4.385.504-10.627.401-11.64 5.768-1.713 9.071 14.173 17.11 19.47 22.947 13.254 14.602 25.168 31.669 25.17 51.999m149 18c22.68-7.392 55.417-26.245 59.13-52 .788-5.466 3.783-24.328-2.564-27.392-6.497-3.137-12.724 6.026-15.512 10.392-10.317 16.158-23.402 33.489-31.054 51-5.633-19.098 14.668-42.751 27.001-54.996 4.964-4.929 20.184-13.102 16.105-21.725-1.752-3.704-7.604-3.591-11.106-3.993-12.106-1.389-24.976 3.997-32.239 13.715-12.897 17.254-11.761 39.628-11.761 59.999 0 8.21-1.246 17.307 2 25m-362-7c-5.416-11.064-4.684-26.838-6.05-39-.552-4.916-.514-13.274-5.175-16.338-8.442-5.55-14.205 18.238-14.59 23.338-1.131 14.989 13.308 41.684 26.815 48 9.881-16.755 23.062-39.713 19.674-60-1.609-9.64-7.911-16.736-16.674-20.687-3.23-1.456-9.046-3.94-11.528.005-3.449 5.484 4.312 16.319 6.183 21.682 4.826 13.831 6.672 29.168 1.345 43m583 16c14.58-6.854 29.41-36.141 25.99-52-1.14-5.255-4.74-20.435-11.9-20.248-4.87.127-6.24 8.662-6.79 12.248-2.23 14.375-4.15 29.515-5.3 44-8.67-12.739-4.22-30.399.36-44 1.72-5.13 9.94-15.551 5.88-20.681-2.82-3.57-7.89-1.516-11.24-.006-8.36 3.768-14.8 10.486-16.53 19.687-3.82 20.254 8.74 44.646 19.53 61m-653 147v1l726 2c-8.98-9.078-25.61-13.554-37-19.247l-89-43.011-105-50.989c-17.822-8.911-38.559-23.023-58-27.389-11.903-2.672-24.881-1.364-37-1.364h-64c-14.026 0-32.539-4.073-46-.366-9.444 2.602-18.194 8.426-27 12.585l-57 27.522-126 60.517c-26.548 12.846-52.778 27.408-80 38.742m-110 447c-3.897-13.24-14.701-26.01-21.573-38-5.388-9.4-9.512-21.08-17.601-28.54-11.004-10.15-25.655-15.54-36.822-25.63-14.977-13.54-20.831-34.11-36.004-47.66-13.091-11.69-29.835-18.68-44-28.92-16.74-12.1-31.131-27.79-44.715-43.25-16.075-18.29-32.724-36.788-44.858-58-20.114-35.165-30.396-75.62-38.423-115-4.751-23.311-4.533-48.032-10.004-71-16.128 3.256-17.98 33.737-18.91 47-3.368 48.011-5.324 97.963 7.065 145 36.993 140.46 163.524 245.62 305.846 264m1239-456c-5.63 23.599-5.65 49.023-10.45 73-8.32 41.616-20.05 84.645-42.61 121-11.43 18.4-26.96 34.78-41.23 51-13.28 15.1-27.34 30.42-43.71 42.25-14.16 10.24-30.92 17.23-44 28.92-15.16 13.55-21.02 34.21-36 47.66-11.2 10.05-25.83 15.49-36.83 25.63-8.08 7.46-12.21 19.14-17.6 28.54-6.88 12.01-17.66 24.72-21.57 38 142.28-18.37 268.86-123.59 305.85-264 12.28-46.629 11.61-98.353 6.98-146-1.27-13.073-2.88-42.78-18.83-46m-1025 22v127h-46v24h-40v24h-52c.654 31.68 22.131 56.72 53 62.54 34.396 6.49 69.372-1.02 104 .5 28.555 1.25 60.473 9.53 86 22.21 30.541 15.16 65.833 41.62 79.573 73.75 16.413 38.38 12.138 96.57 63.427 107.33 6.131 1.29 12.739 2.17 19 1.5 45.108-4.85 47.063-60.41 60.872-92.83 12.235-28.72 32.764-54.36 58.128-72.57 30.771-22.09 71.16-34.49 109-35.42 35.58-.87 70.8 6.93 106-1.91 33.58-8.43 54.66-31.78 59-66.1l-52 2v-23h-30l-10.97-2.318-1.03-19.682-48 1V812h-67c5.26 6.198 13.08 9.176 16.74 17 3.64 7.803 2.26 17.636 2.26 26v52c0 7.236 3.65 29.143-1.6 34.397-3.39 3.389-12.98 1.603-17.4 1.603-16.36 0-32.709.998-49 1v-78c0-21.746-1.233-41.103 21-53v-1h-92v1c6.544 4.415 15.528 8.589 19.08 16.004 4.721 9.854 1.92 25.283 1.92 35.996l1 77-69 1 1-72c0-12.28-2.46-27.498 2.468-39 3.801-8.875 11.724-12.967 17.532-20h-88c5.276 6.388 13.099 10.023 16.637 18 4.772 10.763 2.363 25.498 2.363 37v78l-69-2c2.281-7.717 1-16.982 1-25 0-35.878-10.975-83.061 24-105v-1h-95v1c29.187 17.928 22.351 50.05 21.039 80-.727 16.601-.039 33.382-.039 50l-67 1v-73l1.105-35 17.895-24h-70m-285 89c-7.791 61.322 3.543 123.91 26.4 181 9.263 23.14 19.719 48.86 38.6 65.9 18.214 16.43 41.999 2.51 62 12.02 5.836 2.78 9.567 8.59 14.004 13.08 10.646 10.77 22.424 24.97 35.996 32-5.779-27.92-21.75-55.03-33.139-81-5.386-12.28-7.992-28.11-15.8-39-8.237-11.49-24.682-13.47-31.647-26-11.139-20.04-1.526-48.76-16.098-66.96-11.845-14.792-34.855-14.168-47.701-28.211-10.93-11.947-17.479-26.988-23.415-41.829-2.372-5.931-3.905-17.373-9.2-21m1085 0c-7.29 22.788-15.74 51.265-35.04 66.985-13.02 10.606-33.7 10.91-44.02 25.03-13.46 18.415-4.48 46.195-15.36 65.985-6.86 12.49-23.45 14.57-31.64 26-7.81 10.89-10.41 26.72-15.8 39-11.42 26.04-27.34 53-33.14 81 20.28-9.45 30.44-35.79 50-45.08 21.17-10.06 44.64 4.45 63.83-13.65 18.76-17.7 29.12-44.69 38.23-68.27 22.32-57.74 29.79-115.6 24.94-177h-2m-118 68c-6.07 18.648-12.64 38.69-23.75 55-13.05 19.18-33.2 36.84-56.25 42.32-18.38 4.37-38.26 2.68-57 2.68-44.56 0-91.68-4.08-133 15.78-40.884 19.66-70.68 58.93-84.833 101.22-7.496 22.4-10.197 69.2-37.167 76.1-30.434 7.8-70.359-.52-87.575-28.1-17.108-27.41-18.096-60.54-32.234-89-15.29-30.77-53.694-55.62-84.191-69.69-38.785-17.9-82.416-15.09-124-13.27-30.292 1.33-62.727 2.45-87-19.21-20.546-18.34-26.618-39.71-37-63.83h-1c0 40.76 15.323 82.72 28.166 121 13.026 38.83 29.651 76.22 47.576 113 11.385 23.36 22.898 47.52 40.429 67 24.305 27.01 56.368 46.41 87.829 63.86 24.356 13.51 50.007 27.51 78 30.85 33.847 4.05 72.491-14.31 102-28.96 13.066-6.48 27.882-20.32 43-19.71 25.151 1.02 47.602 28.02 70 37.67 18.139 7.82 38.698 7.3 58 5.46 24.001-2.28 44.65-4.22 67-14.48 50.03-22.97 101.41-66.43 132.49-111.69 20.85-30.36 34.57-64.33 48.94-98 9.08-21.28 18.88-42.74 25.28-65 7.3-25.41 11.15-50.9 14.72-77 1.3-9.533 5.37-24.94 1.57-34m-1168 155c.092 33.31 30.448 64.66 49.999 89 13.583 16.91 27.358 34.51 44.001 48.56 47.184 39.83 114.22 66.44 175 75.86 16.056 2.49 31.836 3.56 48 4.67 9.005.62 19.186 2.52 28-.09-6.787-19.94-21.496-32.57-32.073-50-4.554-7.5-4.066-17.66-12.931-21.81-18.137-8.5-40.211-1.42-58.996-9.53-17.347-7.48-26.741-24.72-46-28.2-30.664-5.53-62.394-2.16-92-13.91-43.05-17.08-74.235-58.44-101-94.55h-2m1487 0c-26.74 36.08-57.98 77.48-101 94.55-30.59 12.14-63.44 8.02-95 14.45-17.53 3.58-26.75 20.9-43 27.55-18.61 7.6-40.07 1.3-58 9.13-9.73 4.26-9.04 14.27-13.93 22.32-10.6 17.46-25.53 29.92-32.07 50 8.81 2.61 19 .71 28 .09 16.16-1.11 31.94-2.18 48-4.67 60.77-9.42 127.83-36.04 175-75.86 16.63-14.04 30.39-31.68 44-48.56 19.58-24.27 49.91-55.71 50-89h-2m-1250 22c1.776 22.5 12.546 40.32 24.319 59 20.587 32.67 47.092 69.65 85.681 82.64 19.846 6.68 39.527-2.63 59 1.75 19.68 4.43 33.07 32.39 56 25.61-12.823-18.2-31.855-33.44-46.83-50-22.053-24.38-42.958-46.96-68.17-68.27-8.591-7.27-17.153-16.22-27-21.76-18.181-10.24-41.387 1.73-60-5.1-11.567-4.25-15.343-15.69-23-23.87m1014 0c-4.65 8.82-10.56 18.45-20 22.81-19.15 8.85-44.26-4.89-63 6.75-37.13 23.07-66.33 58.51-95.17 90.44-14.67 16.24-33.26 31.16-45.83 49 22.17 6.55 36.29-19.71 55-25.35s39.47 4.53 59-1.68c43.93-13.98 70.46-57.5 93.32-93.97 7.13-11.37 21.81-33.69 16.68-48m-918 152c4.713 20.55 29.068 38.54 45 50.37 44.281 32.88 91.021 41.42 145 37.72 16.687-1.14 36.76-1.44 52-9.09-9.291-7.67-24.068-10.3-35-15.31-18.721-8.57-38.907-23.73-59-28.02-12.77-2.73-26.419 1.77-39-2.42-14.203-4.73-18.959-22.47-34-25.73-11.074-2.4-22.841 2.59-34 2.48-14.215-.15-27.75-5.52-41-10m822 0c-13.4 5.97-29.21 10.61-44 9.96-9.86-.43-20.12-4.59-30-2.44-15.04 3.26-19.8 21-34 25.73-12.58 4.19-26.23-.31-39 2.42-20.09 4.29-40.29 19.43-59 28.02-10.96 5.03-25.67 7.61-35 15.31 15.24 7.65 35.31 7.95 52 9.09 53.46 3.66 99.99-4.59 144-36.97 13.85-10.19 26.69-21.34 37.1-35.12 3.08-4.07 9.15-10.66 7.9-16m-1031 18c9.869 28.98 44.224 48.92 70 62.26 18.385 9.51 36.953 19.66 57 25.31 38.572 10.88 81.456 10.38 121 6.6 22.349-2.14 49.121-2.61 69-14.17v-2c-22.76-10.14-47.58-25.15-72-30.33-15.033-3.19-30.494 1.38-46-2.57-17.462-4.44-31.478-16.93-50-18.93-30.429-3.27-61.973 3.98-92-1.78-14.129-2.71-27.313-9.1-40-15.65-5.618-2.9-10.81-7.29-17-8.74m924 78v2c19.95 11.6 46.59 12.03 69 14.17 39.52 3.78 82.45 4.28 121-6.6 20-5.64 38.65-15.82 57-25.31 25.75-13.32 60.14-33.31 70-62.26-6.19 1.45-11.38 5.84-17 8.74-13 6.71-26.49 13.2-41 15.84-29.75 5.41-60.88-1.64-91 1.59-18.52 2-32.54 14.49-50 18.93-15.51 3.95-30.97-.62-46 2.57-24.18 5.13-49.64 19.87-72 30.33m-744 43v1c96.606 39.63 215.704 31.88 309-13.26 32.784-15.86 63.813-35.27 94-55.58l25-17.3c2.967-2.13 7.111-6.37 11-6.29 8.48.17 20.931 12.23 28 16.62 25.331 15.74 49.302 34.12 76 47.56 40.2 20.24 82.57 33.73 126 45.13 30.4 7.99 61.47 16.7 93 18.08 45.63 2 96.27-14.99 134-39.96-7-2.94-18.34 0-26 0-15.63-.01-31.68-1.83-47-5-17.87-3.71-35.02-10.76-53-13.92-19.9-3.49-40.05-2.74-60-5.36-28.92-3.8-57.32-11.12-86-16.3-23.6-4.25-47.53-6.81-71-11.71-27.124-5.66-53.793-15.65-79-27.02-7.752-3.49-15.439-7.05-23-10.95-3.3-1.7-7.07-4.79-11-4.13-9.529 1.59-20.167 11.41-29 15.61-22.992 10.92-46.422 21.52-71 28.36-35.507 9.87-72.518 12.09-109 15.59-26.058 2.5-52.134 7.24-78 11.25-30.043 4.66-56.757 17.59-86 23.92-22.504 4.87-44.293 3.72-67 3.66m64 139c4.313 1.02 10.6 5.13 14.996 3.65 5.787-1.95 7.588-10.56 14.004-11.29 6.19-.7 18.448 5.56 23.941 8.43 7.428 3.88 1.865 12.83 4.662 18.94 1.935 4.22 10.343 5.9 14.397 7.27l.039-30-1.039-55c-4.256-1.16-10.485-5.37-14.911-4.21-5.67 1.48-11.628 10.96-15.374 15.21-12.174 13.81-34.051 29.8-40.715 47m680 27c4.39-.76 13.4-2.71 15.4-7.22 3.72-8.39-3.31-15.51 7.6-19.98 5.19-2.12 15.4-8.25 21-6.99 5.81 1.31 7.67 8.87 13 11.06 4.54 1.86 11.55-2.66 16-3.87-3.81-8.19-11.84-14.38-17.83-21-11.25-12.43-22.67-28.73-36.17-38.68-4.46-3.28-14.93-.65-17.97 4.07-3.26 5.05-1.03 16.74-1.03 22.61v60m-599 3c15.867 3.28 35.665 13.54 52 10.67 20.928-3.67 20.883-26.88 8-38.67 14.251-2.58 19.816-20.45 9.891-30.96-8.676-9.18-25.176-10.69-36.891-13.77-3.173-.84-10.278-4.46-13.062-1.63-3.909 3.98-4.659 15.05-6.054 20.36-4.567 17.39-12.322 36.09-13.884 54m-24-72v29l-20-7 18-22h2m534 11c2.11 24.23 12.14 52.96 20 76l13.88-4.56-.88-8.44-6-23 14-.4 29 21.95 17-3.55v-2l-33-25c16.7-7.95 20.28-35.86-1-41.44-16.08-4.22-37.32 7.2-53 10.44m105-10h1l18 22-20 7 1-29m-588 29c1.13-3.98 1.893-13.59 5.514-15.93 4.619-3 22.837 3.72 25.458 8.14 3.821 6.46-2.171 13.78-8.972 13.4-3.061-.18-6.069-1.38-9-2.18-4.336-1.2-8.708-2.07-13-3.43m64-16l-14 77c16.694 2.12 37.877 11.78 54 3.08 20.364-10.98 26.456-51.01 8.907-66.75-11.018-9.88-34.603-12.2-48.907-13.33m442 25c-.88-4.53-5.02-13.23-3.31-17.58 2.2-5.6 23.67-8.82 28.2-5.68 6.46 4.48 4.8 14.11-1.91 17.15-3.14 1.43-6.65 2.34-9.98 3.23-4.29 1.13-8.6 2.29-13 2.88m-89 65c4.282-.18 14.026-.32 16.49-4.43 3.73-6.25-.599-15.66 8.53-17.95 5.86-1.47 18.1-5.83 23.88-3.93 5.71 1.89 6.29 10.38 11.31 13.28 4.55 2.63 11.89-.58 16.79-.97-5.88-16.07-19.19-31.76-28.67-46-4.78-7.18-8.83-16.57-14.94-22.68-3.43-3.44-13.15-2.16-16.83.69-4.652 3.62-4.578 16.55-5.48 21.99-3.317 20.03-6.981 40.13-11.08 60m-279-77l-10 78 14.258-.03 3.742-19.97 8-56-16-2m268 35c-7.93 1.47-16.009 1.75-24 2.71-2.592.32-7.081-.34-8.357 2.61-6.598 15.21 12.058 7.54 16.923 10.72 8.487 5.56-3.964 13.73-8.566 15.49-25.213 9.65-42.559-27.04-25.895-44.49 6.07-6.35 16.822-9.87 24.894-5.03 3.17 1.9 5.576 6.22 9.171 7.2 3.914 1.07 10.026-2.13 13.83-3.21-6.57-22.76-37.674-25.44-55-13.06-15.431 11.02-17.725 31.01-12.561 48.06 7.371 24.34 33.656 30.95 55.561 22.39 5.515-2.16 14.161-5.85 16.933-11.48 3.369-6.84-.698-24.84-2.933-31.91m-338 19l9-51c7.539.6 19.162 1.69 24.786 7.22 9.605 9.45 5.433 37.68-5.879 44.69-8.032 4.97-19.413.23-27.907-.91m125-49c-.013 19.32-2.773 38.67-3.004 58-.058 4.9-3.249 15.25.032 19.4 2.485 3.14 12.434 2.56 13.654-1.55 3.961-13.34 2.318-32.91 2.318-46.85h1l19.22 36 9.17 14.97 15.61 1.03 3-57-.028-19.4-13.972-1.6-2 50-21.14-37-8.497-13.97-15.363-2.03m73 3l1 32 1 46 59-1v-13l-31 .96-11.397-1.56-1.603-20.4 39-1v-13l-39 1v-17l42-1-1.028-12.17-14.972-.83-43 1m179 5l14 25-20 3c.63-7.94 1.02-21.67 6-28m-446.722 3.78c5.605-1.84 22.314 4.37 26.069 8.61 4.172 4.72 2.568 13.3-3.391 15.72-5.278 2.13-24.431-.94-27.889-5.84-2.258-3.2 1.368-17.23 5.211-18.49z" fill="#cc9a36"/></svg>